PathFileType	4	(X/Y/Z)	Patient4_TMGait_0pt3_03_right_04.trc.trc
DataRate	CameraRate	NumFrames	NumMarkers	Units	OrigDataRate	OrigDataStartFrame	OrigNumFrames
52.434456928839	52.434456928839	5	33	mm	52.434456928839	106	       141
Frame#	Time	Sacral			L.Shoulder			Chest			R.Shoulder			Neck			R.ASIS			L.ASIS			R.Thigh.Superior			R.Thigh.Lateral			R.Thigh.Inferior			R.Patella			L.Thigh.Superior			L.Thigh.Lateral			L.Thigh.Inferior			L.Patella			L.Shank.Superior			L.Shank.Lateral			L.Shank.Inferior			R.Shank.Superior			R.Shank.Lateral			R.Shank.Inferior			R.Heel			R.Midfoot.Superior			R.Midfoot.Lateral			R.Toe			L.Heel			L.Midfoot.Lateral			L.Midfoot.Superior			L.Toe			L.Elbow			L.Wrist			R.Elbow			R.Wrist			
		X1	Y1	Z1	X2	Y2	Z2	X3	Y3	Z3	X4	Y4	Z4	X5	Y5	Z5	X6	Y6	Z6	X7	Y7	Z7	X8	Y8	Z8	X9	Y9	Z9	X10	Y10	Z10	X11	Y11	Z11	X12	Y12	Z12	X13	Y13	Z13	X14	Y14	Z14	X15	Y15	Z15	X16	Y16	Z16	X17	Y17	Z17	X18	Y18	Z18	X19	Y19	Z19	X20	Y20	Z20	X21	Y21	Z21	X22	Y22	Z22	X23	Y23	Z23	X24	Y24	Z24	X25	Y25	Z25	X26	Y26	Z26	X27	Y27	Z27	X28	Y28	Z28	X29	Y29	Z29	X30	Y30	Z30	X31	Y31	Z31	X32	Y32	Z32	X33	Y33	Z33	

106	9.442500000000	749.915861973514	1000.107617514681	436.290581457339	946.418435530237	1426.040068743191	260.498215151694	1040.083051165456	1355.964297823744	425.775035384769	950.463267128540	1429.253646052845	596.392770465024	914.740114967462	1486.611705121669	418.679430521531	973.497741547032	932.987327851865	562.892763459319	972.626210803766	951.793282406726	290.255761099861	1030.887776018094	738.985190576261	541.459426003962	964.029752801162	627.305906407816	610.387565665255	1049.111671117536	572.689453325634	535.758658416638	1046.045504886421	461.049969934916	561.837527968798	1028.330472231193	744.588006193297	333.894627847360	952.504696676870	619.542000455408	275.182992958127	1036.328284785469	549.423197268613	348.698377899810	1038.845718861014	475.108364750883	359.676010563235	1000.189557133730	402.035819817578	352.970801391576	901.584573878033	298.684290819891	296.027081514365	926.684739658643	184.333231784017	372.393099712503	961.258383240287	397.581031993385	569.306553495962	833.523714114408	374.034624036681	625.289440572321	809.999936741113	264.443227763246	581.069281657496	606.427372528502	234.137834881247	543.549880039069	756.718905108048	142.331821748675	598.773995004903	647.310067135081	166.943958746415	622.687101243953	795.901718160630	29.464880165996	631.491453487951	778.325809611270	39.267369590743	404.241565461067	856.890614229926	36.350407694668	328.202069971994	939.726520366947	95.349588283832	361.419963478093	1068.856886191036	40.432317176710	338.493460956913	957.861454057242	1080.693314390580	124.908399721709	1051.240743544822	836.607337886657	136.634987393748	952.738952262838	1076.245815274016	711.005166749148	1075.600025200506	850.540549340823	743.143763732679	
107	9.461571428571	748.745472721736	998.668757787750	433.038568222692	948.247638220826	1425.551420440186	260.580446470328	1039.221928089696	1354.863220721700	427.073923947445	946.730048382023	1427.218391076380	596.648744523062	914.437884343523	1485.587055353895	418.726127536648	971.380112738233	932.549581493005	562.024731984532	973.125930297587	950.700428714914	289.328388746724	1034.740143113570	742.218186762032	539.273851689160	972.032946322589	628.771266797137	608.455157190919	1058.658124062472	576.634340137306	533.395441300590	1058.315277618319	464.006162185854	559.682872280328	1028.427168199011	743.103541609267	332.994058534389	952.401909102410	618.146115334238	274.523156367352	1035.784797447968	547.941847238418	348.588629666762	1038.016739264769	473.512592686989	359.838827031374	998.424125386311	400.449175994132	353.074982573667	898.898403203882	298.060477144920	295.941826587622	922.346985919272	183.551544080326	372.468323109490	972.900734644971	400.001349746428	567.038391460597	843.977134179712	378.010853368666	621.758263534183	819.969624476625	268.100386597653	578.168736358490	616.516802129320	240.287949813892	538.147819109308	765.329942524764	146.444761621235	596.195998315258	655.451532928419	172.859743409288	618.463104208932	802.151192417275	29.786048320658	630.857302675161	772.622091330671	39.353650469964	404.169527638297	851.213645679214	36.350310691329	328.165351073021	934.082266478124	95.239208067790	361.471054928494	1063.180582453832	40.247931570652	338.448110271720	968.618231095524	1081.355169527419	123.199052502444	1072.940520432428	841.878709538824	136.724961874929	934.775418894700	1073.421159928942	708.383793899149	1040.042319802821	839.365934440076	743.048711611256	
108	9.480642857143	747.540509309946	997.662493243659	430.034447296816	950.350985601073	1425.315466460803	261.029224119397	1038.522796342696	1353.915689716266	428.706328548865	943.185675192238	1425.480882147377	597.130572128658	914.407936449887	1484.816950075385	419.104169405759	969.084536700037	932.341922484209	561.457971150493	973.558458617113	949.851566922703	288.701737685894	1037.877905617321	745.759272303839	537.455832430897	979.102354338019	630.714195696498	606.842232935830	1067.162191108548	581.005058034520	531.465679373461	1069.629781003313	467.655838246277	557.877968060328	1028.106096164148	741.731899581268	332.117915487011	951.582119791714	617.025793225790	273.879574374087	1034.488664017950	546.589351031426	348.328801032137	1036.380388439336	472.127408531471	359.844278558573	995.997610640848	399.121690899028	353.032331225701	895.682513603997	297.545978374134	295.780236544608	917.775692061083	182.918990124110	372.457045623668	984.116221219297	402.742597073641	565.103865221264	854.325791892575	381.082286314096	618.606573347170	830.833676874769	270.712855538917	575.533682501509	627.633554769991	242.559125980834	533.358140718249	776.346433034666	149.513257057736	593.778522796603	665.892297036255	175.696361229335	614.672800647696	812.867807307104	30.404397291210	630.087449804852	766.900654799183	39.441119199901	404.094124089686	845.523720507515	36.346941771653	328.119438704451	928.423632564720	95.139727281998	361.477329075125	1057.489313522946	40.090292519192	338.390518142008	978.934872043056	1082.579011270258	121.782198279369	1094.857842806688	848.620126498590	137.421256030125	917.035692457005	1071.577443354058	705.887868946384	1004.850701143067	830.632101957383	742.196753535991	
109	9.499714285714	746.336745674811	997.202994175082	427.262257126610	952.755030009869	1425.422348399116	261.845077606209	1038.007977662527	1353.223546904419	430.669906785827	939.866096444970	1424.172363206288	597.826598678713	914.651357703196	1484.394838056140	419.793232195711	966.622537734800	932.444815009576	561.201675377593	973.969041632005	949.346040386058	288.391081639740	1040.180229894043	749.529864308711	536.075204835641	984.994519954536	633.093656214135	605.611447184444	1074.341738227102	585.664164775025	530.041302156286	1079.667000540285	471.938586707327	556.531328919348	1027.296204691901	740.513416619819	331.311513904607	949.959141151857	616.257483614915	273.254973734793	1032.288544721188	545.411289523592	347.938621504634	1033.759396936082	471.011821130853	359.698330519415	992.773722490081	398.122366235835	352.839125368102	891.844396889205	297.170105609521	295.533058815420	912.918860471297	182.469490981763	372.359273774925	994.695603054337	405.727269113987	563.636367267236	864.498728813979	382.981588419807	616.061089005642	842.670637105314	272.052692204376	573.392111748661	640.027382756745	240.516691289472	529.549885587621	790.006766917253	151.215316330237	591.755542495123	678.945350693734	175.032960734762	611.630627091128	828.429550717162	31.236090235511	629.318668174187	761.157707163619	39.526720057818	404.014516653704	839.816941769330	36.340419359920	328.063731699893	922.745858870008	95.057631443026	361.435658273479	1051.779986644119	39.963915080054	338.323288964438	988.768052888199	1084.393665140535	120.679053617008	1116.766454954335	856.920578851235	138.704075602421	899.646619498757	1070.853146656502	703.567352576330	970.545302217538	824.424295189591	740.634536992317	
110	9.518785714286	745.172360272597	997.364119457614	424.711898733768	955.470733892744	1425.932890954663	263.023446306719	1037.691561942047	1352.864298269877	432.956774944151	936.798495305949	1423.389857346712	598.725425569862	915.154826364776	1484.382584098360	420.770652591402	964.018438338504	932.911938729651	561.264448725711	974.396371070053	949.249974232262	288.412176867940	1041.563052831546	753.413444969292	535.182238915197	989.509241150870	635.820635234208	604.815401799662	1079.949952023567	590.427185889009	529.161176082259	1088.133970770457	476.743920562874	555.716080414168	1025.949388840507	739.474748436220	330.646240457933	947.498743658616	615.892977206149	272.666342574908	1029.085580860615	544.441902576291	347.467580886078	1030.034060141329	470.208109138887	359.433325827698	988.664335780189	397.499969484374	352.512545142088	887.330940450319	296.954133361754	295.203146946955	907.741957847643	182.225309253984	372.184241118126	1004.442732863886	408.856690475410	562.739728892830	874.455140481337	383.498818128374	614.317146672036	855.541204373215	271.981322291756	571.946447910474	654.013814820798	234.006862936406	527.015569844718	806.440920732047	151.349296629932	590.348428139198	694.869572669607	170.720605931944	609.604001772875	848.914527567729	32.210748368542	628.734235323608	755.392011446324	39.608388424718	403.929474241713	834.090785013698	36.331213783552	327.998383874935	917.046202443908	94.998349715733	361.346976203950	1046.050876294207	39.870783982204	338.250114189690	998.104283882254	1086.793666893276	119.917527306462	1138.434709993605	866.807826801958	140.552029734437	882.718393796097	1071.333975479371	701.446283293446	937.602187249920	820.716314218188	738.436902052304	
